<mxfile host="app.diagrams.net" modified="2023-10-31T07:25:03.964Z" agent="Mozilla/5.0 (Windows NT 10.0; Win64; x64) AppleWebKit/537.36 (KHTML, like Gecko) Chrome/118.0.0.0 Safari/537.36" etag="6OCICvigTczCy5SBjUk1" version="21.7.4" type="github">
  <diagram name="Page-1" id="XZ2_pMbtaxnRZCYfR612">
    <mxGraphModel dx="2049" dy="1126" grid="1" gridSize="10" guides="1" tooltips="1" connect="1" arrows="1" fold="1" page="1" pageScale="1" pageWidth="850" pageHeight="1100" math="0" shadow="0">
      <root>
        <mxCell id="0" />
        <mxCell id="1" parent="0" />
        <mxCell id="l_ruK7K85vm5lOoqQyv8-4" value="" style="rounded=0;whiteSpace=wrap;html=1;" vertex="1" parent="1">
          <mxGeometry x="160" y="200" width="520" height="680" as="geometry" />
        </mxCell>
        <mxCell id="l_ruK7K85vm5lOoqQyv8-5" value="" style="endArrow=none;html=1;rounded=0;entryX=1;entryY=0.157;entryDx=0;entryDy=0;exitX=-0.001;exitY=0.157;exitDx=0;exitDy=0;exitPerimeter=0;entryPerimeter=0;" edge="1" parent="1" source="l_ruK7K85vm5lOoqQyv8-4" target="l_ruK7K85vm5lOoqQyv8-4">
          <mxGeometry width="50" height="50" relative="1" as="geometry">
            <mxPoint x="150" y="310" as="sourcePoint" />
            <mxPoint x="440" y="470" as="targetPoint" />
          </mxGeometry>
        </mxCell>
        <mxCell id="l_ruK7K85vm5lOoqQyv8-6" value="" style="endArrow=none;html=1;rounded=0;entryX=1.007;entryY=0.693;entryDx=0;entryDy=0;exitX=0.002;exitY=0.693;exitDx=0;exitDy=0;exitPerimeter=0;entryPerimeter=0;" edge="1" parent="1" source="l_ruK7K85vm5lOoqQyv8-4" target="l_ruK7K85vm5lOoqQyv8-4">
          <mxGeometry width="50" height="50" relative="1" as="geometry">
            <mxPoint x="169" y="317" as="sourcePoint" />
            <mxPoint x="690" y="317" as="targetPoint" />
          </mxGeometry>
        </mxCell>
      </root>
    </mxGraphModel>
  </diagram>
</mxfile>
